<?xml version="1.0" encoding="iso-8859-1"?>
<!-- Generator: Adobe Illustrator 16.0.0, SVG Export Plug-In . SVG Version: 6.00 Build 0)  -->
<!DOCTYPE svg PUBLIC "-//W3C//DTD SVG 1.1//EN" "http://www.w3.org/Graphics/SVG/1.1/DTD/svg11.dtd">
<svg version="1.1" id="Capa_1" xmlns="http://www.w3.org/2000/svg"  x="0px" y="0px"
	 width="994px" height="994px" viewBox="0 0 994 994" style="enable-background:new 0 0 994 994;" xml:space="preserve">
<g>
	<path d="M113.05,575.2L39.85,655.1c10.5-3.699,21.8-5.8,33.5-5.8h847.3c11.801,0,23,2,33.5,5.8l-73.1-79.899H113.05z"/>
	<path d="M73.35,994h847.3c22.101,0,40-17.9,40-40V749.3c0-22.1-17.899-40-40-40H73.35c-22.1,0-40,17.9-40,40V954
		C33.35,976.1,51.35,994,73.35,994z M809.05,791.6c33.1,0,60,26.9,60,60c0,33.101-26.9,60-60,60s-60-26.899-60-60
		C749.05,818.5,775.951,791.6,809.05,791.6z"/>
	<path d="M920.75,170.5c12.3,0,24,2.2,34.899,6.3L811.451,19.5C800.15,7.1,784.05,0,767.25,0h-270.2h-270.2
		c-16.8,0-32.9,7.1-44.2,19.5L38.45,176.8c10.9-4.1,22.6-6.3,34.9-6.3H920.75z"/>
	<path d="M73.35,515.2h94.7h658h94.6c22.101,0,40-17.9,40-40V270.5c0-22.1-17.899-40-40-40H73.35c-22.1,0-40,17.9-40,40v204.7
		C33.35,497.3,51.35,515.2,73.35,515.2z M809.05,312.8c33.1,0,60,26.9,60,60c0,33.101-26.9,60-60,60s-60-26.899-60-60
		C749.05,339.7,775.951,312.8,809.05,312.8z"/>
</g>
<g>
</g>
<g>
</g>
<g>
</g>
<g>
</g>
<g>
</g>
<g>
</g>
<g>
</g>
<g>
</g>
<g>
</g>
<g>
</g>
<g>
</g>
<g>
</g>
<g>
</g>
<g>
</g>
<g>
</g>
</svg>
